<svg xmlns="http://www.w3.org/2000/svg" width="536" height="580">
  <g fill="none" fill-rule="evenodd">
    <path fill="#FAB428" d="M505.884 292.495c-6.689-6.713-4.014-3.883-5.234-14.69-.619-5.611-2.232-11.244-2.232-17.667 0-1.43 11.48-16.621 11.48-19.143 0-1.032-19.389-33.364-21.746-37.22-4.682-7.679-7.842-9.861-15.156-14.708-6.01-3.983-11.227-9.106-17.473-12.408 0-10.979-6.244-11.395-3.018-26.76 1.889-9.013 3.828-17.931 5.65-27.283 4.266-21.972-19.479-38.289-19.479-44.749l-.352-1.574 2.684-19.684 15.293-2.484c.826-1.573 6.109-11.304 6.109-12.249V22.728c-6.211-.517-13.309-3.064-19.145-3.064-.895 0-14.236 14.337-16.746 16.026l11.396 19.968c-16.754 19.278-5.375 21.615-37.529 29.102-3.092-1.632-7.766-6.667-10.416-9.503-3.035-3.269-9.463-4.828-14.137-5.763-11.764-2.357-21.344-8.69-30.004-10.588-4.498-.993-11.596-5.534-14.271-5.377-2.775.167-11.336 3.728-15.725 4.644-13.084 2.738-16.871 4.22-32.955 6.346l-11.721.349-.193.106v-.123l-26.844.806-29.828-26.844c-2.375 1.249-33.641 15.312-33.709 15.312-.357 0-13.049-12.249-13.775-12.249-2.936 0-12.189 7.654-16.855 7.654l-6.545.263 9.605 14.292c-1.914 3.995-9.447 28.138-10.451 33.208-1.145 5.844 1.264 32.504 1.264 41.846-7.139 10.657-20.742 31.187-30.934 37.984-7.256 4.84-13.367 9.163-20.541 13.939-10.516 7.023-9.789 7.346-9.771 24.699l-57.459 24.463c-.201 8.921-6.128 26.93-7.591 36.074-2.977 18.706 4.53 22.623 4.53 36.688l.201 5.375-3.269 39.805c-.217 2.403 30.314 51.577 34.009 57.13 6.236 9.357 11.361 18.248 17.59 27.595.075.116 22.329 21.874 23.308 22.638 8.46 6.609 15.868 13.474 24.864 20.329 10.057 7.661 17.17 11.318 27.846 18.115 9.43 6.007 18.326 11.463 28.107 17.071 6.127 3.52 16.193 19.216 20.564 25.749l15.174-9.413c7.793 1.814 30.447 12.252 36 12.252h.768c2.049 0 6.898-2.262 8.477-3.14l14.406 10.262.602 1.065 10.533 3.972.443.093c6.076.325 10.4.543 15.332.936 7.934.623 7.691-1.589 12.238-3.996l1.521-22.978c6.564-3.474 20.977-9.66 26.209-13.627 7.131-5.396 13.92-13.605 21.277-18.538l16 .059 8.512-7.717 12.254-9.957c5.836 0 40.131-10.216 48.857-12.406 13.309-3.332 11.01-1.873 17.514-13.116 4.439-7.679 4.088-15.771 4.088-27.321v-6.893c7.674-1.789 19.514-12.699 21.469-19.715l14.521-1.731v-6.893c0-11.823 3.318-11.015-2.934-19.271-2.893-3.812-9.312-10.245-7.992-15.355 2.039-7.943 4.689-7.211 5.576-18.974.543-7.219 1.521-17.138 1.221-23.355l9.488-8.048 1.312-.28 4.047-3.554c3.803.883 8.818 5.363 11.494 5.363.643 0 2.291-1.651 2.291-2.295.004-1.5-17.686-17.305-20.094-19.727"/>
    <path fill="#182D4D" fill-rule="nonzero" d="M508.313 285.501c-.098-1.99-.439-4.733-.829-7.858-.786-6.308-1.862-14.946-.633-17.372 1.584-3.105 3.56-6.139 5.651-9.35 1.94-2.979 3.947-6.06 5.625-9.223l.372-.702-.371-.702c-2.564-4.854-5.649-9.777-8.633-14.539-3.684-5.878-7.491-11.956-10.247-17.808-6.398-13.579-11.848-17.565-21.74-24.803-1.188-.87-2.443-1.788-3.779-2.781-1.368-1.012-2.675-1.853-3.939-2.666-4.078-2.623-7.024-4.517-8.357-9.692-.672-2.6-1.258-4.462-1.686-5.822-1.341-4.258-1.341-4.258 1.267-12.915l.243-.807a767.806 767.806 0 0 0 2.503-8.603c3.009-10.476 7.129-24.824 9.906-30.694l.27-.57-4.659-12.625c-.153-6.893-6.007-13.348-11.179-19.051-3.703-4.084-7.201-7.941-7.201-10.538v-5.396h6.936c.804 0 2.685 0 11.012-13.796 1.898-3.146 8.094-13.656 8.094-16.808l-.035-23.238-24.695-6.72-.568.38c-.398.267-1.611 1.078-17.208 17.243-15.628 16.197-15.628 16.197-15.628 16.938 0 1.573 1.701 4.481 5.582 10.74 1.836 2.962 4.536 7.316 5.053 8.838-1.441 2.137-6.762 9.962-7.368 10.663-1.242 1.411-10.307 4.174-13.874 4.251-1.292-.531-6.285-4.767-8.19-6.383-.837-.71-1.51-1.281-1.884-1.577-4.631-3.682-6.31-4.083-11.295-5.271-.814-.194-1.725-.411-2.76-.67-1.757-.438-6.227-2.087-10.958-3.833-9.834-3.628-16.448-6.007-18.683-6.007h-19.137c-5.8 0-13.846 2.831-22.364 5.828-8.976 3.158-18.258 6.424-25.12 6.424h-41.076c-3.206-1.792-28.673-24.281-30.428-26.901l-.751-1.122-1.194.63c-3.092 1.63-28.108 13.45-32.089 15.019-1.633-1.143-6.843-5.759-9.752-8.336-4.279-3.792-4.279-3.792-4.944-3.792-2.131 0-5.159 1.17-8.665 2.526-3.38 1.307-7.21 2.787-9.728 2.872-2.107.071-4.44.105-7.134.105-2.72 0-5.472-.035-8.21-.068a650.911 650.911 0 0 0-8.073-.067l-2.947.003 16.435 27.918c-.152 4.487-1.256 10.106-2.323 15.546-1.247 6.35-2.425 12.347-2.303 17.03.123 5.147.599 10.207 1.104 15.563.611 6.495 1.243 13.211 1.243 20.397v1.375c-1.213 3.27-21.556 29.587-24.282 31.386-1.763 1.166-5.104 3.56-8.975 6.332-8.421 6.033-22.516 16.13-25.378 16.892l-1.024.273-1.539 19.23-64.184 24.48-.181.777c-.435 1.867-1.167 4.834-2.052 8.416C5.891 258.506.652 279.716.652 285.412c0 4.134 1.416 8.4 2.916 12.917 1.579 4.758 3.212 9.678 3.212 14.657v.455l.253.379c2.861 4.278 4.337 34.635 4.337 46.645v.456l.254.379c7.551 11.272 15.17 24.108 22.537 36.521 2.814 4.74 5.724 9.643 8.525 14.276 2.153 3.565 4.522 7.014 6.813 10.348 3.312 4.821 6.441 9.374 9.007 14.288 3.879 7.438 10.481 13.912 16.308 19.623 1.041 1.021 2.065 2.025 3.056 3.016 15.919 15.917 27.395 25.277 44.258 37.976 5.012 3.774 44.116 28.274 50.961 31.347l16.741 37.563 1.418-.749c.739-.39 2.844-1.619 5.51-3.177 3.767-2.2 9.896-5.781 11.497-6.538 2.788.82 19.012 6.363 21.111 7.176.711.28 1.512.603 2.354.941 2.991 1.205 6.383 2.571 8.388 3.092 1.643.433 3.103.643 4.462.643 2.419 0 4.05-.684 5.359-1.232.973-.408 1.741-.73 2.658-.73 1.773 0 10.453 5.744 17.477 11.065l.354.269 33.372 2.448.109.004c2.31 0 4.046-.915 5.577-1.723 1.205-.636 2.344-1.236 3.674-1.352l1.244-.107 2.399-24.942c1.78-.939 3.475-1.826 5.098-2.676 14.471-7.577 23.206-12.151 36.414-24.165 7.908-7.194 17.786-14.56 27.339-21.684 3.953-2.947 7.687-5.732 11.261-8.485 2.227-1.725 24.438-7.441 37.708-10.856 6.866-1.768 12.796-3.294 15.509-4.11 10.973-3.298 12.024-4.757 14.71-10.403.863-1.814 1.937-4.072 3.778-7.078 4.06-6.63 4.49-18.785 4.509-30.819l.362-.189c3.879-2.029 9.74-5.096 11.801-8.122.592-.87 1.146-1.792 1.734-2.768 2.096-3.483 4.264-7.085 7.762-7.446 2.568-.262 4.512-.303 6.074-.336 6.342-.134 6.597-1.177 6.682-9.3l.012-1.096c.039-2.954.564-5.838 1.12-8.892.597-3.274 1.214-6.66 1.214-10.242v-.46l-.257-.38c-.673-.994-4.559-6.303-7.987-10.986a1733.72 1733.72 0 0 1-3.988-5.459c.165-1.467 1.099-3.304 2.081-5.238 1.418-2.791 3.024-5.954 3.26-9.534.177-2.65.451-5.356.717-7.974.394-3.887.768-7.567.803-10.787 1.604-2.078 7.867-8.836 9.439-9.714 2.633.027 4.269.547 5.997 1.097 1.467.467 2.983.949 5.007 1.059l.827.045 9.716-13.723-27.182-25.124Zm-12.462 35.605c.241 4.992-.359 12.435-.89 19.001-.117 1.454-.23 2.856-.329 4.17-.526 6.987-1.653 9.286-2.959 11.948-.824 1.681-1.758 3.586-2.573 6.763-1.285 4.972 3.239 10.484 6.543 14.51.633.771 1.221 1.487 1.705 2.126 3.894 5.142 3.754 6.177 3.234 10.028-.255 1.892-.604 4.482-.604 8.338v5.561l-14.196 1.693-.271.968c-1.82 6.534-13.24 16.995-20.364 18.656l-1.159.271.003 10.453c.022 10.105.038 17.407-3.89 24.2-.748 1.294-1.381 2.421-1.935 3.406-3.528 6.285-3.528 6.285-11.562 8.246-.925.226-1.946.476-3.083.76-2.466.619-6.984 1.882-12.216 3.343-12.855 3.592-32.282 9.019-36.276 9.019h-.532l-12.731 10.348-7.99 7.268h-15.968l-.379.254c-4.146 2.779-8.115 6.571-11.953 10.238-3.071 2.934-6.246 5.968-9.396 8.351-3.417 2.59-10.996 6.213-17.684 9.409-3.172 1.516-6.168 2.948-8.32 4.087l-.74.392-1.522 22.997c-.906.525-1.612 1.022-2.251 1.472-1.731 1.218-2.685 1.889-5.953 1.889-.739 0-1.557-.036-2.499-.111-1.984-.157-13.332-.775-15.123-.872l-10.062-3.625-.665-.999-15.463-10.938-.825.459c-1.869 1.04-6.231 2.95-7.747 2.95h-.768c-2.89 0-11.849-3.486-19.752-6.562-6.409-2.493-12.462-4.849-15.908-5.651l-.604-.141-14.467 8.975-.437-.658c-6.732-10.14-14.372-21.22-19.825-24.352-9.037-5.183-17.688-10.437-28.048-17.036-3.269-2.08-6.173-3.85-8.982-5.561-6.349-3.866-11.832-7.205-18.76-12.482-4.841-3.688-9.28-7.433-13.575-11.053-3.624-3.057-7.372-6.217-11.265-9.257-.959-.792-21.336-20.656-23.068-22.409-3.07-4.612-5.924-9.196-8.685-13.631-2.801-4.498-5.696-9.149-8.829-13.85-4.667-7.015-32.506-52.187-33.748-56.348l3.262-39.723-.204-5.408c0-6.056-1.349-10.336-2.653-14.476-1.843-5.846-3.584-11.367-1.896-21.976.563-3.524 1.817-8.445 3.145-13.656 2.013-7.901 4.09-16.057 4.424-21.646l57.501-24.481-.01-4.143c-.055-14.176-.055-14.176 9.111-20.299 3.65-2.43 7.086-4.784 10.409-7.061 3.229-2.212 6.568-4.5 10.133-6.878 10.188-6.795 23.603-26.829 30.809-37.592l.793-1.184v-.456c0-3.548-.342-9.548-.705-15.9-.593-10.402-1.266-22.192-.587-25.655 1.032-5.214 8.564-29.162 10.332-32.852l.371-.773-8.587-12.776 3.803-.154c3.012 0 7.052-2.387 10.958-4.695 1.899-1.122 4.428-2.616 5.567-2.908 1.289.989 5.473 4.871 8.058 7.269 5.312 4.929 5.312 4.929 6.048 4.929.684 0 27.924-12.489 33.44-15.036l29.539 26.583 26.093-.711.99.001c24.176 0 31.881-2.574 38.073-4.643 2.433-.813 4.533-1.515 7.328-1.918 2.456-.354 5.85-1.611 9.131-2.826 2.633-.975 5.356-1.983 6.52-2.051 1.118 0 3.802 1.248 6.169 2.349 2.639 1.227 5.366 2.496 7.642 2.998 3.768.826 7.829 2.57 12.129 4.418 5.293 2.273 11.292 4.851 17.902 6.175 2.82.564 10.314 2.062 13.335 5.316l.161.172c2.767 2.96 7.397 7.916 10.65 9.633l.495.261.545-.127c22.73-5.292 24.392-8.213 28.833-16.021 1.935-3.402 4.343-7.636 9.488-13.557l.523-.602-2.77 20.317.378 1.694c.115 2.606 2.656 5.773 6.143 10.118 6.793 8.467 16.097 20.062 13.359 34.16-1.359 6.977-2.808 13.824-4.208 20.445-.48 2.272-.961 4.542-1.438 6.817-2.014 9.59-.45 13.756 1.062 17.786.989 2.635 1.923 5.123 1.923 9.283v.904l.799.422c3.623 1.915 6.858 4.439 10.283 7.111 2.263 1.765 4.603 3.591 7.062 5.221 6.938 4.598 10.105 6.697 14.705 14.24 3.156 5.163 19.842 33.07 21.48 36.585-.5 1.646-4.321 7.333-6.646 10.794-4.163 6.198-4.79 7.271-4.79 8.202 0 4.232.67 8.078 1.317 11.797.362 2.084.705 4.053.925 6.038.34 3.014.37 4.923.392 6.317.063 4.04.435 4.413 4.977 8.969l.293.294c.662.666 2.393 2.266 4.584 4.29 4.344 4.015 13.065 12.075 14.884 14.413-.233.274-.568.592-.798.745-1.03-.14-2.906-1.26-4.575-2.255-2.122-1.267-4.317-2.576-6.38-3.055l-.75-.175-4.332 3.805-1.299.277-10.34 8.77.038.738ZM455.328 52.763l-15.654 2.542-.045.324-11.173-19.576c1.61-1.415 4.309-4.118 7.919-7.762 2.791-2.816 6.215-6.272 7.29-7.124 2.967.06 6.272.772 9.763 1.525 2.478.534 5.026 1.083 7.484 1.387v17.659c-.274.893-2.067 4.441-5.332 10.553l-.252.472Z"/>
    <g fill-rule="nonzero">
      <path fill="#FFF" d="M433.988 262.265c-.342-8.711-3.018-17.284-8.193-26.195a.185.185 0 0 0-.041-.066c-4.875-8.149-10.574-14.26-17.414-18.692-6.789-4.403-14.906-7.29-24.82-8.805-.061-.006-.109-.015-.178-.023a75.002 75.002 0 0 0-9.094-.573c-7.391 0-14.338 1.279-20.658 3.811-5.994 2.395-11.621 5.992-16.721 10.699l-23.258 8.763c-.961-5.672-3.336-11.244-7.271-16.977v-.02c-5.268-7.587-10.275-11.444-19.18-14.728-.016-.006-.041-.015-.049-.023-5.275-1.872-10.543-2.829-15.693-2.829-10.809 0-20.598 4.142-28.398 11.998l-1.914.537c6.646-6.759 15.984-12.204 27.924-16.256 7.656-2.596 18.791-6.259 31.684-10.499 36.775-12.096 82.547-27.151 93.131-32.44 8.092-4.043 16.176-8.656 18.525-16.713 1.621-5.557.242-11.89-4.223-19.366-3.092-5.171-9.07-7.795-17.773-7.795-9.42 0-19.604 3.1-21.561 3.733-2.439.501-19.201 4.053-42.527 10.44-42.018 11.523-72.85 23.319-91.309 31.186a530.679 530.679 0 0 0-4.73 2.051L95.858 197.676a5.374 5.374 0 0 0 2.884 10.346l75.802-17.577c-3.002 3.557-5.51 7.226-7.6 11.042l-46.783 15.983c-2.658.905-4.154 3.697-3.479 6.41.703 2.715 3.361 4.447 6.121 3.974l37.393-6.409c-1.068 6.534-1.285 13.709-.701 22.02.701 10.005 4.289 19.902 10.676 29.42 3.889 5.797 8.836 11.466 14.73 16.928l-54.439 14.43a5.375 5.375 0 0 0-3.896 6.274 5.38 5.38 0 0 0 6.045 4.238l43.447-6.329-12.508 4.254a5.364 5.364 0 0 0-3.494 6.326 5.362 5.362 0 0 0 5.953 4.091l18.156-2.476v29.649c0 4.986.352 12.327 3.262 18.396a21.362 21.362 0 0 0 3.369 5.06 5.38 5.38 0 0 0-4.088 4.549l-.51 3.978a19.51 19.51 0 0 0-1.84-2.479c-4.322-4.992-10.625-7.528-18.711-7.528-6.27 0-11.795 1.912-15.959 5.542-5.869 5.098-8.836 13.22-8.836 24.141v30.865c0 10.926 2.967 19.045 8.836 24.149 4.164 3.624 9.689 5.534 15.959 5.534 4.857 0 9.123-1.037 12.691-3.018 1.029 1.069 2.424 1.688 3.912 1.688h19.111a5.371 5.371 0 0 0 5.334-4.758l.217-1.935 6.053 5.33a5.416 5.416 0 0 0 3.504 1.333l7.289.079h.066c.26 0 .52-.017.762-.05h16.963c.107 0 .225-.009.342-.009.109 0 .227.009.326.009h42.336a5.359 5.359 0 0 0 5.334-4.758l.242-2.063 6.344 5.518a5.346 5.346 0 0 0 3.531 1.32h.041l5.734-.055c.191.029.385.038.594.038h20.84c.109 0 .234-.009.352-.009.119 0 .242.009.359.009h58.871a5.377 5.377 0 0 0 5.352-4.758l.25-2.181 6.514 5.593a5.315 5.315 0 0 0 3.367 1.296l6.873.162a5.343 5.343 0 0 0 4.055-1.709 5.33 5.33 0 0 0 1.414-4.18l-7.449-76.934a5.385 5.385 0 0 0-5.35-4.859h-24.338a5.384 5.384 0 0 0-4.756 2.893 5.372 5.372 0 0 0-4.773-2.893h-12.189c.008-.113.016-.224.016-.335v-24.804c3.881.241 7.549.361 10.994.361 7.74 0 14.529-.621 20.172-1.854 17.09-3.729 18.076-11.999 17.707-15.375-.643-5.993-6.578-10.491-14.471-11.256 10.752-2.421 20.098-7.729 27.488-15.707.15-.154.443-.471.785-.871 3.713-4.188 6.881-9.048 9.422-14.454 4.448-9.493 6.444-18.332 6.11-27.016Zm-205.164-23.842c.051-1.26.15-2.494.275-3.717l2.115-.219c-.117 4.405.568 9.018 2.057 13.936 2.893 9.74 8.686 17.283 16.77 22.056-.016.022-.033.045-.041.062-5.393-3.074-9.924-6.692-13.359-10.703-5.468-6.411-8.093-13.617-7.817-21.415Zm63.377 133.557 1.807 1.595h-1.99l.183-1.595Zm5.769-97.651 19.076-3.49c.387 3.193 1.055 6.436 2.016 9.769a42.386 42.386 0 0 1-.467-.008 5.377 5.377 0 0 0-3.838 1.507 5.376 5.376 0 0 0-1.646 3.78l-.061 3.607c0 .536.061 1.056.211 1.553h-3.018c-5.443-2.148-11.779-3.919-19.062-5.948-7.332-2.046-15.449-4.312-24.611-7.482l11.971-1.542c.025-.004.068-.007.1-.017l.537-.065c.117-.014.232-.03.342-.055 4.689-.628 9.037-1.969 12.975-3.967a5.39 5.39 0 0 0 5.475 2.358Zm68.653 48.461c.459-.449.91-.932 1.371-1.426.619.062 1.229.111 1.848.16 2.557.227 5.1.314 7.574.272-3.696.66-7.307.994-10.793.994Zm-56.305-69.71c1.797-3.969 2.943-7.823 3.461-11.619a5.242 5.242 0 0 0 2.508.113l5.26-1.01a7.66 7.66 0 0 0-.109.515l-.453 3.158c-1.764 3.979-3 8.086-3.676 12.255l-11.203 3.792a43.053 43.053 0 0 0 4.18-7.147.192.192 0 0 0 .032-.057Z"/>
      <path fill="#025680" d="M217.121 368.75h6.938v-31.045h-13.217v7.126h1.338v9.053c0 2.764-.637 5.341-3.135 5.341-2.576 0-3.145-2.577-3.145-5.341v-38.11c0-2.758.645-5.334 3.145-5.334 2.498 0 3.135 2.576 3.135 5.334v12.146l12.248-5.101-.311-4.762c-.143-13.332-5.508-18.479-15.072-18.479-7.859 0-15.008 4.284-15.008 19.82v30.869c0 15.524 4.357 19.811 12.141 19.811 1.723 0 3.645-.186 5.441-.942 1.857-.675 3.57-1.912 4.857-3.815l.645 3.429ZM244.617 368.75v-30.969s6.512 28.205 7.941 30.969h12.498l-9.531-32.089c6.957-4.136 7.166-11.45 7.166-19.936 0-14.291-6.713-15.815-18-15.815h-11.93v67.84h11.856Zm0-58.12c5.441 0 6.219 2.386 6.219 8.668 0 6.388-.861 8.77-6.219 8.77V310.63ZM285.849 341.788l2.072-30.203h.151l2.072 34.259zM312.474 368.75h9.289v-49.452h.141l8.779 49.452h15.233v-67.84h-9.29v42.122h-.142l-7.582-42.122h-16.428zM227.761 451.275h9.289v-49.45h.151l8.787 49.45h15.222v-67.836h-9.289v42.119h-.15l-7.572-42.119h-16.438zM322.716 451.275v-30.963s6.512 28.199 7.932 30.963h12.525l-9.549-32.09c6.965-4.13 7.174-11.451 7.174-19.931 0-14.291-6.713-15.815-18.008-15.815h-11.928v67.836h11.854Zm0-58.114c5.434 0 6.219 2.38 6.219 8.664 0 6.386-.852 8.77-6.219 8.77v-17.434ZM386.017 424.312l2.074-30.203h.151l2.072 34.255zM283.765 424.312l2.074-30.203h.143l2.074 34.255-4.291-4.052Zm-4.572-40.873-8.643 67.836h9.998l1.93-16.67 19.188 16.67h.393l-6.58-67.836h-16.286ZM200.568 424.312l2.072-30.203h.143l2.072 34.255zM168.933 423.53l-.076 12.883c0 2.764-.643 5.334-3.211 5.334-2.432 0-3.076-2.57-3.076-5.334v-38.108c0-2.764.645-5.334 3.076-5.334 2.568 0 3.211 2.57 3.211 5.334v10.69l11.863-4.969v-3.818c0-14.674-6.43-18.1-15.074-18.1-7.857 0-14.938 4.287-14.938 19.816v30.865c0 15.532 7.08 19.818 14.938 19.818 10.008 0 15.074-6.094 15.074-18.766V423.53h-11.787ZM351.599 383.439h11.863v67.836h-11.863z"/>
      <path fill="#182D4D" d="M401.82 378.95h-24.338l-9.529 74.854V378.95h-20.852v69.813l-8.275-27.836c6.463-5.774 6.463-14.498 6.463-21.673 0-18.739-11.111-20.305-22.498-20.305h-16.418v70.262l-6.814-70.262h-24.328l-9.521 74.82v-74.82h-42.436v71.295l-6.914-71.295h-24.318l-6.83 53.567v-13.48h-18.15v-4.418l18.15-7.604v-6.807c0-14.989-6.58-22.595-19.564-22.595-7.256 0-19.42 3.16-19.42 24.312v30.865c0 21.156 12.164 24.309 19.42 24.309 10.936 0 15.902-6.016 18.033-12.622l-1.43 11.293h19.111l1.396-12.131 13.77 12.102 7.281.083v-.054h17.74v-3.811l.668 3.811h42.337l1.404-12.186 14.047 12.202 6.369-.06v.043h20.84V454.4l.711 1.368H386.797l1.43-12.245 14.18 12.194 6.863.167-7.45-76.934Z"/>
      <path fill="#0082C3" d="M301.917 217.251c-4.607-6.641-8.705-9.824-16.613-12.753-14.639-5.219-28.992-2.349-39.418 8.884l-27.312 7.693 23.584-2.979c-1.656 2.452-2.941 4.922-3.854 7.447l-10.592 3.904 9.723-1.001c-1.414 5.729-1.037 11.76.986 18.436 3.729 12.574 12.725 20.399 25.004 23.053l-9.137 3.846 23.635-3.047c.008 0 .025 0 .025-.007l.541-.069v-.008c11.898-1.503 21.57-8.285 26.928-19.786 5.411-11.971 4.075-22.557-3.5-33.613"/>
      <path fill="#182D4D" d="M391.443 145.133c13.912-6.947 21.395-12.933 12.098-28.506-6.354-10.617-33.348-1.62-33.348-1.62s-68.914 14.01-133.109 41.37c-1.672.71-3.303 1.421-4.898 2.132L97.53 202.783l95.271-22.091c-10.768 8.188-17.756 16.491-22.078 25.183l-48.832 16.679 45.303-7.759c-2.617 8.858-3.043 18.194-2.34 28.289 1.346 19.159 14.295 35.884 31.35 49.287l-64.363 17.066 63.854-9.309c-2.064 2.075-3.812 4.955-4.908 8.951l-25.496 8.687 24.51-3.344c-.15 1.54-.25 3.189-.25 4.977v30.869c0 10.434 1.73 24.305 16.629 24.305 2.717 0 5.039-.418 7.08-1.261.066-.019.125-.048.184-.071h35.671v-1.364l.703 1.364h36.808l1.414-12.101 13.719 12.112 6.221-.034v.022h18.266v-3.812l.693 3.812h23.467v-30.61c13.461 1.202 25.799 1.154 35.396-.936 23.508-5.132 12.373-19.22-3.127-15.501-11.168 2.667-22.121 2.729-32.27-.402v-29.37h-41.207c-11.586-4.782-28.416-7.681-50.461-15.913-22.07-8.234-35.98-23.488-35.279-42.282.168-4.361.812-8.895 2.189-13.43l-23.992-.703 29.201-10.671c6.312-9.969 17.473-19.186 36.441-25.623 29.101-9.881 110.236-35.706 124.146-42.666Zm-83.465 190.866v25.748l-2.543-26.292c.844.178 1.697.362 2.543.544Zm-41.232-10.063c2.123.578 4.314 1.179 6.588 1.78l-4.732 37.158-7.875-26.475c3.837-3.431 5.392-7.897 6.019-12.463Zm-38.481.149v7.132H211.15l17.115-7.132Z"/>
      <path fill="#FDC42E" d="M217.121 368.75h6.938v-31.045h-13.217v7.126h1.338v9.053c0 2.764-.637 5.341-3.135 5.341-2.576 0-3.145-2.577-3.145-5.341v-38.11c0-2.758.645-5.334 3.145-5.334 2.498 0 3.135 2.576 3.135 5.334v12.146l12.248-5.101-.311-4.762c-.143-13.332-5.508-18.479-15.072-18.479-7.859 0-15.008 4.284-15.008 19.82v30.869c0 15.524 4.357 19.811 12.141 19.811 1.723 0 3.645-.186 5.441-.942 1.857-.675 3.57-1.912 4.857-3.815l.645 3.429ZM244.617 368.75v-30.969s6.512 28.205 7.941 30.969h12.498l-9.531-32.089c6.957-4.136 7.166-11.45 7.166-19.936 0-14.291-6.713-15.815-18-15.815h-11.93v67.84h11.856Zm0-58.12c5.441 0 6.219 2.386 6.219 8.668 0 6.388-.861 8.77-6.219 8.77V310.63ZM285.849 341.788l2.072-30.203h.15l2.072 34.259-4.294-4.056Zm-4.566-40.878-8.652 67.84h9.998l1.932-16.674 19.588 16.674-6.57-67.84h-16.296ZM312.474 368.75h9.289v-49.452h.141l8.779 49.452h15.233v-67.84h-9.29v42.122h-.142l-7.582-42.122h-16.428zM227.761 451.275h9.289v-49.45h.151l8.787 49.45h15.222v-67.836h-9.289v42.119h-.15l-7.572-42.119h-16.438zM322.716 451.275v-30.963s6.512 28.199 7.932 30.963h12.525l-9.549-32.09c6.965-4.13 7.174-11.451 7.174-19.931 0-14.291-6.713-15.815-18.008-15.815h-11.928v67.836h11.854Zm0-58.114c5.434 0 6.219 2.38 6.219 8.664 0 6.386-.852 8.77-6.219 8.77v-17.434ZM386.017 424.312l2.074-30.203h.15l2.072 34.255-4.296-4.052Zm-4.564-40.873-8.652 67.836h10l1.93-16.67 19.588 16.67-6.588-67.836h-16.278ZM283.765 424.312l2.074-30.203h.143l2.074 34.255-4.291-4.052Zm18.293 26.963-6.58-67.836h-16.285l-8.643 67.836h9.998l1.93-16.67 19.58 16.67ZM200.568 424.312l2.072-30.203h.143l2.072 34.255-4.287-4.052Zm-4.574-40.873-8.645 67.836h10.008l1.93-16.67 19.572 16.67-6.562-67.836h-16.303ZM168.933 423.53l-.076 12.883c0 2.764-.643 5.334-3.211 5.334-2.432 0-3.076-2.57-3.076-5.334v-38.108c0-2.764.645-5.334 3.076-5.334 2.568 0 3.211 2.57 3.211 5.334v10.69l11.863-4.969v-3.818c0-14.674-6.43-18.1-15.074-18.1-7.857 0-14.938 4.287-14.938 19.816v30.865c0 15.532 7.08 19.818 14.938 19.818 10.008 0 15.074-6.094 15.074-18.766V423.53h-11.787ZM351.599 383.439h11.863v67.836h-11.863z"/>
      <path fill="#FDC42E" d="M419.601 239.695c9.238 15.923 9.471 30.102 1.771 46.545-9.656 20.574-28.383 30.144-50.938 28.129-21.043-1.498-36.426-12.095-43.355-32.229-6.295-18.022-3.443-33.226 8.67-48.085 12.424-15.196 27.338-20.817 46.732-18.449 17.296 2.657 28.374 9.511 37.12 24.089"/>
      <path fill="#182D4D" d="M421.154 238.812c-8.826-14.699-20.32-22.164-38.455-24.943a69.805 69.805 0 0 0-8.451-.535c-13.461 0-24.805 4.535-34.484 13.788l-24.496 9.227 19.379-3.728c-.084.116-.186.226-.293.347-2.482 3.041-4.572 6.099-6.303 9.188a15.125 15.125 0 0 0-1.289-.244l-.525 3.569c.033 0 .066.015.1.015-2.299 4.904-3.662 9.904-4.121 15.065l-25.215 8.53 25.049-4.579c0 5.834 1.094 11.888 3.326 18.265a54.902 54.902 0 0 0 1.211 3.198c-4.822.101-8.008.055-8.1.055l-.059 3.603c.199.004 1.129.02 2.625.02 1.723 0 4.18-.02 7.141-.097 6.703 13.641 18.107 22.312 33.465 25.483-1.029 1.129-2.174 2.257-3.252 3.303-.461.448-.912.89-1.33 1.309l-.602.668 2.699 2.403.486-.561 1.262-1.237c1.629-1.586 3.436-3.343 4.857-5.172 1.463.2 2.959.357 4.49.473a69.99 69.99 0 0 0 5.967.268c15.301 0 28.199-5.412 37.547-15.533 0 0 .266-.285.602-.673 3.359-3.79 6.27-8.21 8.627-13.232 8.066-17.237 7.505-32.105-1.858-48.243m-92.369 42.784c-2.174-6.21-3.201-12.091-3.102-17.75.033-1.536.143-3.062.336-4.571.584-4.348 1.838-8.575 3.844-12.728 3.279 1.417 6.863 4.083 10.543 7.86 1.68 1.713 3.369 3.661 5.074 5.818.66.827 1.305 1.668 1.957 2.554 4.615 6.261 8.869 13.638 11.797 20.219-9.322 1.844-20.482 2.579-28.768 2.861a50.984 50.984 0 0 1-1.681-4.263m35.254 30.215c-14.463-2.574-25.287-10.189-31.852-22.388 8.418-.33 19.27-1.135 28.449-3.026a63.047 63.047 0 0 1 1.229 3.482l.16.644c3.435 13.072 3.06 18.823 2.014 21.288m12.197 1.066c-1.838 0-3.744-.084-5.676-.259a78.366 78.366 0 0 1-2.91-.272c1.857-5.89-.268-15.616-2.139-22.743l-.176-.712a70.934 70.934 0 0 0-1.154-3.298c.436-.113.869-.225 1.297-.346 2.055-.564 4.045-1.16 5.969-1.77 3.836 5.548 9.08 9.925 14.195 14.174 1.947 1.628 3.803 3.168 5.568 4.765.793 1.424 2.49 4.573 2.934 5.653l3.336-1.357c-.627-1.555-2.994-5.822-3.262-6.308l-.141-.266-.227-.199c-1.889-1.72-3.938-3.416-5.902-5.061-4.641-3.86-9.404-7.822-12.906-12.589 5.717-1.971 10.816-4.102 15.33-6.294a35.707 35.707 0 0 0 2.742 5.688c1.473 2.416 6.029 6.832 10.426 11.101 2.307 2.233 5.283 5.122 6.639 6.684-8.603 8.74-20.23 13.409-33.943 13.409m43.498-27.356c-1.973 4.215-4.373 7.973-7.123 11.256-1.328-1.507-3.428-3.555-6.562-6.586-3.838-3.725-8.611-8.357-9.84-10.386-1.012-1.661-1.873-3.493-2.607-5.441 19.662-10.33 26.953-21.341 27.354-21.974l-3.035-1.952c-.092.147-6.938 10.511-25.473 20.418-4.396-15.446-2.24-36.79.904-49.409l-3.512-.865c-2.342 9.417-3.613 20.629-3.512 30.754.074 6.141.693 13.984 2.852 21.189-4.699 2.325-10.074 4.584-16.178 6.639-.025-.046-.059-.091-.084-.133-6.955-12.549-10.316-35.111-12.223-51.432-.049-.352-.074-.713-.125-1.062l-3.586.421c.051.437.107.88.158 1.329 1.932 16.402 5.309 38.899 12.373 52.011-1.629.508-3.27.998-4.99 1.472-.568.153-1.146.304-1.73.448-3.043-6.989-7.775-15.387-13.334-22.721a86.626 86.626 0 0 0-5.301-6.358c-4.047-4.351-8.344-7.87-12.631-9.785 1.562-2.719 3.434-5.419 5.625-8.106a64.677 64.677 0 0 1 3.318-3.754c3.436-3.604 7.064-6.521 10.928-8.762 3.986-2.295 8.217-3.887 12.789-4.811a47.623 47.623 0 0 1 3.812-.608 52.882 52.882 0 0 1 6.246-.368c2.559 0 5.25.168 7.959.5 17.139 2.625 27.521 9.356 35.83 23.208 8.821 15.179 9.323 28.599 1.698 44.868"/>
    </g>
  </g>
</svg>